<svg version="1.2" xmlns="http://www.w3.org/2000/svg" viewBox="0 0 156 124" width="156" height="124"><style>.a{fill:#285a5b}</style><path class="a" d="m0.4 44.7h152.4v6h-152.4z"/><path class="a" d="m124.9 123.3h-96.4c-1.2 0-2.4-1.2-3-2.4l-19.6-70.8 6-1.8 19.1 68.5h92.3l19-68.5 6 1.8-19.6 70.8c-1.5 1.2-2.7 2.4-3.8 2.4z"/><path class="a" d="m75.5 48l-27.6-44.5 5.1-3.2 27.6 44.5z"/><path class="a" d="m71.3 65.5h10.7v10.7h-10.7z"/><path class="a" d="m94.5 65.5h10.7v10.7h-10.7z"/><path class="a" d="m48.1 65.5h10.7v10.7h-10.7z"/><path class="a" d="m71.3 88.7h10.7v10.7h-10.7z"/><path class="a" d="m94.5 88.7h10.7v10.7h-10.7z"/><path class="a" d="m48.1 88.7h10.7v10.7h-10.7z"/></svg>